<?xml version="1.0" encoding="utf-8"?>
<!-- Generator: Adobe Illustrator 24.3.0, SVG Export Plug-In . SVG Version: 6.00 Build 0)  -->
<svg version="1.1" id="Layer_1" xmlns="http://www.w3.org/2000/svg" xmlns:xlink="http://www.w3.org/1999/xlink" x="0px" y="0px"
	 viewBox="0 0 800 800" enable-background="new 0 0 800 800" xml:space="preserve">
<g>
	<path fill="#ebe6e6" d="M652.782,81.2c1.266-3.645,3.893-6.589,7.404-8.289c3.511-1.707,7.445-1.947,11.101-0.676l0.838,0.289
		c7.572,2.627,11.593,10.928,8.965,18.5l-98.25,283.157c-1.266,3.645-3.893,6.589-7.404,8.289c-3.515,1.701-7.454,1.94-11.101,0.676
		l-0.842-0.291c-3.643-1.266-6.584-3.893-8.282-7.401c-1.703-3.511-1.944-7.451-0.678-11.094L652.782,81.2z"/>
	<path fill="#787EBB" d="M124.456,72.526l0.847-0.294c1.544-0.535,3.133-0.801,4.726-0.801c2.172,0,4.344,0.496,6.37,1.48
		c3.51,1.701,6.138,4.644,7.404,8.289l98.25,283.16c1.266,3.643,1.025,7.583-0.678,11.094c-1.698,3.508-4.64,6.135-8.282,7.401
		l-0.847,0.294c-3.643,1.266-7.581,1.031-11.096-0.678c-3.511-1.701-6.138-4.644-7.404-8.289l-98.25-283.157
		C112.868,83.452,116.888,75.151,124.456,72.526z"/>
	<path fill="#BFC6E4" d="M676.892,705.839l-0.096,1.348c0,11.793-9.598,21.391-21.396,21.391H144.595
		c-11.793,0-21.391-9.598-21.391-21.391v-0.678L68.97,335.03c0.328-11.513,9.794-20.776,21.382-20.776h82.857l18.854,54.336
		c-3.866,7.145-5.965,15.188-5.965,23.395c0,27.092,22.042,49.134,49.134,49.134c27.092,0,49.134-22.042,49.134-49.134
		c0-19.142-11.289-36.599-28.455-44.583l-11.501-33.147h307.765l-12.317,35.499c-14.82,8.769-24.228,24.804-24.228,42.232
		c0,27.092,22.042,49.134,49.134,49.134c27.092,0,49.134-22.042,49.134-49.134c0-9.669-2.877-19.016-8.128-26.987l17.607-50.743
		h86.267c11.593,0,21.059,9.264,21.387,20.776L676.892,705.839z"/>
	<g>
		<path fill="#1D1751" d="M709.643,295.603h-79.796l68.863-198.465c5.997-17.289-3.187-36.235-20.481-42.238l-0.838-0.289
			c-8.346-2.894-17.343-2.356-25.343,1.516c-7.991,3.875-13.988,10.609-16.888,18.957l-76.515,220.518H237.939L161.423,75.085
			c-2.9-8.348-8.897-15.083-16.888-18.957c-7.996-3.875-16.997-4.412-25.339-1.518l-0.847,0.294
			c-17.289,6.001-26.473,24.947-20.476,42.236l68.863,198.465H90.352c-22.079,0-40.041,17.962-40.041,40.044v0.676l54.247,371.584
			c0.387,21.751,18.199,39.322,40.037,39.322h510.806c21.842,0,39.654-17.571,40.041-39.322l54.152-370.912l0.096-1.348
			C749.689,313.566,731.727,295.603,709.643,295.603z M652.782,81.2c1.266-3.645,3.893-6.589,7.404-8.289
			c3.511-1.707,7.445-1.947,11.101-0.676l0.838,0.289c7.572,2.627,11.593,10.928,8.965,18.5l-98.25,283.157
			c-1.266,3.645-3.893,6.589-7.404,8.289c-3.515,1.701-7.454,1.94-11.101,0.676l-0.842-0.291c-3.643-1.266-6.584-3.893-8.282-7.401
			c-1.703-3.511-1.944-7.451-0.678-11.094L652.782,81.2z M595.248,391.984c0,16.808-13.673,30.484-30.484,30.484
			c-16.811,0-30.484-13.676-30.484-30.484c0-4.283,0.935-8.427,2.604-12.223c0.442,1.294,0.937,2.576,1.544,3.827
			c3.875,7.993,10.609,13.992,18.96,16.89l0.842,0.291c3.542,1.229,7.199,1.839,10.85,1.839c4.954,0,9.89-1.125,14.493-3.356
			c4.56-2.211,8.441-5.379,11.497-9.22C595.112,390.687,595.248,391.325,595.248,391.984z M124.456,72.526l0.847-0.294
			c1.544-0.535,3.133-0.801,4.726-0.801c2.172,0,4.344,0.496,6.37,1.48c3.51,1.701,6.138,4.644,7.404,8.289l98.25,283.16
			c1.266,3.643,1.025,7.583-0.678,11.094c-1.698,3.508-4.64,6.135-8.282,7.401l-0.847,0.294c-3.643,1.266-7.581,1.031-11.096-0.678
			c-3.511-1.701-6.138-4.644-7.404-8.289l-98.25-283.157C112.868,83.452,116.888,75.151,124.456,72.526z M258.157,383.588
			c1.251-2.58,2.115-5.27,2.667-8.005c3.085,4.813,4.891,10.459,4.891,16.401c0,16.808-13.673,30.484-30.484,30.484
			c-16.244,0-29.52-12.779-30.399-28.805c2.4,2.229,5.143,4.118,8.179,5.59c4.603,2.231,9.544,3.356,14.497,3.356
			c3.647,0,7.304-0.61,10.841-1.837l0.847-0.294C247.548,397.58,254.282,391.581,258.157,383.588z M676.892,705.839l-0.096,1.348
			c0,11.793-9.598,21.391-21.396,21.391H144.595c-11.793,0-21.391-9.598-21.391-21.391v-0.678L68.97,335.03
			c0.328-11.513,9.794-20.776,21.382-20.776h82.857l18.854,54.336c-3.866,7.145-5.965,15.188-5.965,23.395
			c0,27.092,22.042,49.134,49.134,49.134c27.092,0,49.134-22.042,49.134-49.134c0-19.142-11.289-36.599-28.455-44.583
			l-11.501-33.147h307.765l-12.317,35.499c-14.82,8.769-24.228,24.804-24.228,42.232c0,27.092,22.042,49.134,49.134,49.134
			c27.092,0,49.134-22.042,49.134-49.134c0-9.669-2.877-19.016-8.128-26.987l17.607-50.743h86.267
			c11.593,0,21.059,9.264,21.387,20.776L676.892,705.839z"/>
	</g>
	<path fill="#1D1751" d="M456.885,546.535c-15.854,0-31.708,0-47.561,0c0-15.854,0-31.708,0-47.562c0-12.001-18.65-12.02-18.65,0
		c0,15.854,0,31.708,0,47.562c-15.854,0-31.708,0-47.561,0c-12.001,0-12.02,18.65,0,18.65c15.854,0,31.708,0,47.561,0
		c0,15.854,0,31.708,0,47.561c0,12,18.65,12.02,18.65,0c0-15.854,0-31.708,0-47.561c15.854,0,31.708,0,47.561,0
		C468.886,565.185,468.905,546.535,456.885,546.535z"/>
</g>
</svg>
